HIERARCHY
ROOT reference
{
	OFFSET 0.000000 0.000000 0.000000
	CHANNELS 6 Xposition Yposition Zposition Xrotation Yrotation Zrotation
	JOINT root
	{
		OFFSET 0.000000 89.865501 0.000000
		CHANNELS 3 Xrotation Yrotation Zrotation
		JOINT Hips
		{
			OFFSET 0.000000 0.000000 0.000000
			CHANNELS 3 Xrotation Yrotation Zrotation
			JOINT Spine
			{
				OFFSET 0.026468 -0.105476 0.013595
				CHANNELS 3 Xrotation Yrotation Zrotation
				JOINT Spine1
				{
					OFFSET -4.853540 17.193298 -5.027490
					CHANNELS 3 Xrotation Yrotation Zrotation
					JOINT Spine2
					{
						OFFSET -3.457120 17.043396 -6.489570
						CHANNELS 3 Xrotation Yrotation Zrotation
						JOINT Neck
						{
							OFFSET -5.140712 15.586197 -8.669389
							CHANNELS 3 Xrotation Yrotation Zrotation
							JOINT Head
							{
								OFFSET -4.152532 8.554840 -6.523941
								CHANNELS 3 Xrotation Yrotation Zrotation
								End Site
								{
									OFFSET 0.000000 0.100006 0.000000
								}
							}
						}
						JOINT RightShoulder
						{
							OFFSET -3.299612 14.542206 -11.633700
							CHANNELS 3 Xrotation Yrotation Zrotation
							JOINT RightArm
							{
								OFFSET 5.333398 -8.032135 -12.870399
								CHANNELS 3 Xrotation Yrotation Zrotation
								JOINT RightForeArm
								{
									OFFSET 0.595392 -13.786201 -25.966297
									CHANNELS 3 Xrotation Yrotation Zrotation
									JOINT RightHand
									{
										OFFSET -13.516900 -1.519997 -20.889801
										CHANNELS 3 Xrotation Yrotation Zrotation
										End Site
										{
											OFFSET 0.000000 0.099998 0.000000
										}
									}
								}
							}
						}
						JOINT LeftShoulder
						{
							OFFSET -6.992721 16.618195 -5.713750
							CHANNELS 3 Xrotation Yrotation Zrotation
							JOINT LeftArm
							{
								OFFSET -6.718698 3.247314 14.245000
								CHANNELS 3 Xrotation Yrotation Zrotation
								JOINT LeftForeArm
								{
									OFFSET 8.817424 -14.592697 23.957703
									CHANNELS 3 Xrotation Yrotation Zrotation
									JOINT LeftHand
									{
										OFFSET -10.526401 -21.311096 7.512070
										CHANNELS 3 Xrotation Yrotation Zrotation
										End Site
										{
											OFFSET 0.000000 0.099998 0.000000
										}
									}
								}
							}
						}
					}
				}
			}
			JOINT RightUpLeg
			{
				OFFSET 4.593220 -0.383102 -8.373450
				CHANNELS 3 Xrotation Yrotation Zrotation
				JOINT RightLeg
				{
					OFFSET -10.208004 -39.044800 -19.962399
					CHANNELS 3 Xrotation Yrotation Zrotation
					JOINT RightFoot
					{
						OFFSET 4.843668 -40.875301 -1.150249
						CHANNELS 3 Xrotation Yrotation Zrotation
						JOINT RightToe
						{
							OFFSET -9.736691 -6.853470 -13.504299
							CHANNELS 3 Xrotation Yrotation Zrotation
							End Site
							{
								OFFSET 0.000000 0.100000 0.000000
							}
						}
					}
				}
			}
			JOINT LeftUpLeg
			{
				OFFSET -4.593220 0.383102 8.373440
				CHANNELS 3 Xrotation Yrotation Zrotation
				JOINT LeftLeg
				{
					OFFSET -5.424696 -42.687302 13.250099
					CHANNELS 3 Xrotation Yrotation Zrotation
					JOINT LeftFoot
					{
						OFFSET 11.095002 -37.688301 12.331402
						CHANNELS 3 Xrotation Yrotation Zrotation
						JOINT LeftToe
						{
							OFFSET -16.356800 -7.519040 -0.239304
							CHANNELS 3 Xrotation Yrotation Zrotation
							End Site
							{
								OFFSET 0.000000 0.100000 0.000000
							}
						}
					}
				}
			}
		}
	}
}
MOTION
Frames: 16
Frame Time: 0.041667
0.000000 0.000000 0.000000 -0.000000 0.000000 -0.000000 -12.348370 -5.475989 12.361482 -2.700235 -0.955128 -1.452009 -0.277560 2.017617 2.103769 -3.335492 0.977476 1.183010 -2.284900 0.721373 0.694179 0.975070 -0.238341 -3.435287 4.006308 0.555588 -5.228536 5.450758 0.758488 1.611135 -41.744631 6.568706 76.104386 -10.012998 -16.626175 6.843001 -22.619792 22.796957 -24.520342 2.207048 1.477282 0.629124 -12.484226 9.414225 -35.114955 27.958614 -31.962912 -21.091658 11.533832 8.885844 -3.857038 5.773646 4.695216 -4.588835 24.874244 -0.780971 -19.615649 -15.206636 -1.432579 10.516009 -1.117721 -0.041413 -0.325291 8.726727 4.908824 -0.738478 -0.405072 -6.707392 -21.302687 4.718782 6.563885 12.487269 1.429832 -0.038641 -1.048424 
0.000000 0.000000 0.000000 -0.000000 0.000000 -0.000000 -11.800463 -5.997859 10.794853 -1.520262 -0.547239 -0.813573 0.022999 1.255933 2.357321 -3.151012 0.958256 1.432090 -2.162242 0.728781 0.864396 0.605122 -0.123507 -3.002382 2.981007 0.670139 -4.730518 5.222747 0.292208 1.777171 -32.510351 6.679169 58.026500 -7.949130 -12.896848 5.569415 -19.100766 20.715627 -11.952459 1.970464 0.669393 0.836405 -12.080118 7.392987 -33.154537 28.150802 -32.240498 -21.204170 10.805923 6.472026 -1.179555 5.604006 4.418547 -3.916051 24.875909 -0.783067 -19.616693 -17.740757 -1.796431 9.771130 -1.592642 -0.041404 -0.637262 7.927557 2.443985 -4.861807 0.105421 -3.462827 -10.912107 3.132088 4.715671 8.412015 2.888139 -0.108473 -2.378582 
0.000000 0.000000 0.000000 -0.000000 0.000000 -0.000000 -9.112746 -5.575442 8.769907 -1.352608 -0.488084 -0.723339 0.349872 0.989723 2.213006 -2.586414 0.860292 1.315820 -1.777613 0.657599 0.798090 0.099900 -0.215276 -2.541472 1.760004 0.395511 -4.295915 4.866173 -0.326990 1.966878 -25.655965 5.931000 43.222540 -4.919272 -7.689075 3.557023 -14.824287 20.054322 -3.485100 1.359822 -0.340513 0.895301 -11.975415 5.400393 -31.563879 27.172192 -30.831829 -20.624031 10.376513 6.480582 -1.213074 4.665883 5.462297 -1.013868 24.890794 -0.794182 -19.626917 -20.126932 -3.832316 9.663656 1.344774 -0.147221 2.724483 6.340858 1.360559 -6.240713 0.103431 -1.073293 -3.390694 1.960383 2.702204 3.393364 2.960219 -0.034801 -1.211349 
0.000000 0.000000 0.000000 -0.000000 0.000000 -0.000000 -5.969181 -4.702059 6.582577 -1.241244 -0.448593 -0.663477 0.601543 0.726001 1.803465 -1.993832 0.651575 0.908286 -1.370161 0.489947 0.543955 -0.290029 -0.175421 -1.973377 0.654527 0.339956 -3.569116 4.633443 -1.209243 2.333079 -20.768684 4.808068 30.633590 -1.583037 -2.366621 1.178438 -8.026359 17.211882 0.115042 0.550464 -1.372105 0.821402 -12.750046 3.938146 -29.092457 25.343057 -28.232811 -19.492605 9.906039 6.739759 -1.567226 3.655218 7.265522 2.594754 24.897677 -0.799752 -19.631541 -24.720528 -8.013047 11.128236 5.554936 0.421269 -1.054199 4.669502 1.397699 -4.436890 0.071747 -0.666306 -2.107336 -0.039270 1.391657 1.566544 2.390960 0.047980 0.370912 
0.000000 0.000000 0.000000 -0.000000 0.000000 -0.000000 -4.632613 -4.486802 5.598263 -0.991296 -0.359607 -0.529315 0.724447 0.600690 1.545052 -1.684215 0.600932 0.631589 -1.156688 0.437295 0.363670 -0.507324 -0.105726 -1.665010 0.043806 0.382566 -3.156005 4.687693 -1.633668 2.574472 -19.304835 4.538877 25.312799 -0.134163 -0.196560 0.100994 -4.588811 14.774297 0.524617 0.094676 -1.728579 0.687452 -13.482102 3.349219 -27.659131 24.171411 -26.595688 -18.738293 9.522242 6.803334 -1.802741 3.323219 8.155442 3.930914 24.897679 -0.799758 -19.631545 -28.752890 -11.076687 11.530193 8.561934 0.594519 -2.143105 3.837231 1.621637 -3.648724 0.066803 -0.611745 -1.935094 -0.472992 0.914708 1.248736 0.156874 0.013116 0.291690 
0.000000 0.000000 0.000000 -0.000000 0.000000 -0.000000 -2.737385 -4.568337 4.135938 -0.461189 -0.168616 -0.245708 1.044849 0.560049 1.021203 -0.889603 0.711348 0.078641 -0.611902 0.477652 -0.010256 -0.980098 0.044036 -1.176981 -1.161312 0.502107 -2.538068 4.916733 -2.202474 2.964918 -16.829443 4.366856 16.516140 1.825215 2.600446 -1.392903 1.462422 10.916266 2.180691 -0.439626 -2.090381 0.506798 -15.045843 2.565453 -25.287906 21.294344 -22.684081 -16.798391 8.468164 6.869426 -2.378488 1.952082 9.128707 5.574331 24.923350 -0.805039 -19.651629 -33.473207 -14.631028 10.754998 7.163969 0.382493 -1.066205 2.826192 2.813673 -2.158354 0.093348 -0.930629 -2.941097 -1.013633 0.090141 1.195221 0.116078 0.009627 0.215827 
0.000000 0.000000 0.000000 -0.000000 0.000000 -0.000000 -1.404554 -4.001371 3.073767 -0.450065 -0.164501 -0.239768 1.378968 0.648398 0.632048 0.029047 0.800417 -0.229042 0.015015 0.524411 -0.214307 -1.168018 0.132941 -0.873828 -1.732654 0.583192 -2.073527 4.605895 -2.335616 2.895742 -13.958887 3.093574 9.722049 3.137025 4.385095 -2.414357 5.687900 7.662635 3.927004 -0.626799 -2.011320 0.372189 -15.321701 1.806108 -23.272645 17.425419 -17.707236 -14.022205 6.753739 6.149390 -2.556310 2.650889 5.495377 1.486507 14.443451 0.583293 -11.409168 -23.380617 -6.595480 5.224328 -2.914981 -0.124957 -0.689284 2.372374 2.770395 -1.468539 0.078468 -0.743665 -2.351461 -1.497040 -0.439595 0.761179 0.079853 0.006741 0.148464 
0.000000 0.000000 0.000000 -0.000000 0.000000 -0.000000 -0.146374 -2.775230 1.918965 -0.495845 -0.181158 -0.264204 1.362890 0.486351 0.422546 0.478557 0.556144 -0.232197 0.322981 0.363849 -0.192838 -1.201234 0.241967 -0.343907 -2.105018 0.532409 -1.133136 3.618717 -1.956298 2.284208 -10.136828 2.054293 4.690727 3.225789 4.503334 -2.484059 6.596080 4.163049 2.586753 -0.391504 -1.581449 0.356624 -13.068879 1.516477 -20.039273 12.962132 -12.421712 -10.629159 4.763277 5.017148 -2.366134 5.000702 1.816952 -3.332465 -1.565036 -0.237239 1.229543 -13.240613 -1.747050 -1.959963 -2.600991 -0.086536 -0.758004 1.549039 1.768335 -0.727543 0.045201 -0.391947 -1.240726 -1.652246 -0.715133 0.191617 0.049366 0.004041 0.091781 
0.000000 0.000000 0.000000 -0.000000 0.000000 -0.000000 -0.005791 -2.132639 1.361092 -0.455971 -0.166683 -0.242924 1.350262 0.400087 0.343573 0.692001 0.445399 -0.201475 0.468783 0.293546 -0.161093 -1.140454 0.175250 -0.005684 -2.133177 0.235301 -0.557835 3.232498 -1.817657 2.056443 -8.895674 1.485058 2.468023 3.001568 4.204064 -2.308145 6.174750 2.572934 2.262274 -0.287662 -1.245254 0.296063 -11.206425 1.188763 -17.533724 10.707552 -9.947864 -8.852585 3.954434 4.632350 -2.245260 4.653929 1.676224 -3.084618 -3.873688 -0.650149 3.038296 -12.627536 -1.060013 -4.013333 3.312059 -0.935573 6.711699 1.395288 1.593588 -0.463088 0.030727 -0.258083 -0.817355 -1.333781 -0.786668 0.015337 0.036589 0.004005 0.068027 
0.000000 0.000000 0.000000 -0.000000 0.000000 -0.000000 -0.216898 -0.872466 0.409554 -0.276541 -0.101380 -0.147211 1.215776 0.221458 0.208218 0.946430 0.235577 -0.122491 0.642812 0.160192 -0.088648 -0.870211 0.025417 0.375529 -1.749461 -0.236786 0.144479 2.414776 -1.363317 1.510011 -6.567972 0.263865 0.113230 2.359262 3.335466 -1.806779 4.479615 0.929243 1.438752 -0.080070 -0.652083 0.197694 -7.368538 0.509800 -11.089774 6.597930 -5.781424 -5.526339 2.610052 3.681096 -1.715651 2.368100 0.693015 -0.834575 -1.753279 -0.268099 1.377260 -6.992451 -0.944358 -2.432762 5.127517 0.006962 3.711691 1.264350 1.173896 -0.323867 -0.016652 0.128150 0.406405 -0.562441 -0.910023 -0.529110 0.016481 0.003971 0.030646 
0.000000 0.000000 0.000000 -0.000000 0.000000 -0.000000 -0.164336 -0.207169 0.094862 -0.081275 -0.029926 -0.043227 0.691456 0.125770 0.049711 0.620509 0.138611 -0.123440 0.422226 0.090935 -0.085929 -0.474969 -0.023752 0.243190 -0.956788 -0.217127 0.127211 1.152089 -0.644676 0.696695 -3.363700 -0.481900 0.099683 1.403740 2.012129 -1.068204 2.108345 0.405876 0.708240 0.038750 -0.194274 0.094146 -3.572463 0.029388 -4.622993 3.090891 -2.572027 -2.613570 1.230613 1.513207 -0.611675 0.585662 0.032393 0.063699 -0.029745 -0.004183 0.023390 -1.351645 -0.009960 -0.770206 0.539768 -0.085919 1.140241 0.699361 0.286376 -0.279995 -0.031163 0.234505 0.744068 -0.295842 -0.558554 -0.606707 0.004152 0.003963 0.007713 
0.000000 0.000000 0.000000 -0.000000 0.000000 -0.000000 -0.164336 -0.207169 0.094862 -0.081275 -0.029926 -0.043227 0.691456 0.125770 0.049711 0.620509 0.138611 -0.123440 0.422226 0.090935 -0.085929 -0.474969 -0.023752 0.243190 -0.956788 -0.217127 0.127211 1.152089 -0.644676 0.696695 -3.363700 -0.481900 0.099683 1.403740 2.012129 -1.068204 2.108345 0.405876 0.708240 0.038750 -0.194274 0.094146 -3.572463 0.029388 -4.622993 3.090891 -2.572027 -2.613570 1.230613 1.513207 -0.611675 0.585662 0.032393 0.063699 -0.029745 -0.004183 0.023390 -1.351645 -0.009960 -0.770206 0.539768 -0.085919 1.140241 0.699361 0.286376 -0.279995 -0.031163 0.234505 0.744068 -0.295842 -0.558554 -0.606707 0.004152 0.003963 0.007713 
0.000000 0.000000 0.000000 -0.000000 0.000000 -0.000000 -0.164336 -0.207169 0.094862 -0.081275 -0.029926 -0.043227 0.691456 0.125770 0.049711 0.620509 0.138611 -0.123440 0.422226 0.090935 -0.085929 -0.474969 -0.023752 0.243190 -0.956788 -0.217127 0.127211 1.152089 -0.644676 0.696695 -3.363700 -0.481900 0.099683 1.403740 2.012129 -1.068204 2.108345 0.405876 0.708240 0.038750 -0.194274 0.094146 -3.572463 0.029388 -4.622993 3.090891 -2.572027 -2.613570 1.230613 1.513207 -0.611675 0.585662 0.032393 0.063699 -0.029745 -0.004183 0.023390 -1.351645 -0.009960 -0.770206 0.539768 -0.085919 1.140241 0.699361 0.286376 -0.279995 -0.031163 0.234505 0.744068 -0.295842 -0.558554 -0.606707 0.004152 0.003963 0.007713 
0.000000 0.000000 0.000000 -0.000000 0.000000 -0.000000 -0.164336 -0.207169 0.094862 -0.081275 -0.029926 -0.043227 0.691456 0.125770 0.049711 0.620509 0.138611 -0.123440 0.422226 0.090935 -0.085929 -0.474969 -0.023752 0.243190 -0.956788 -0.217127 0.127211 1.152089 -0.644676 0.696695 -3.363700 -0.481900 0.099683 1.403740 2.012129 -1.068204 2.108345 0.405876 0.708240 0.038750 -0.194274 0.094146 -3.572463 0.029388 -4.622993 3.090891 -2.572027 -2.613570 1.230613 1.513207 -0.611675 0.585662 0.032393 0.063699 -0.029745 -0.004183 0.023390 -1.351645 -0.009960 -0.770206 0.539768 -0.085919 1.140241 0.699361 0.286376 -0.279995 -0.031163 0.234505 0.744068 -0.295842 -0.558554 -0.606707 0.004152 0.003963 0.007713 
0.000000 0.000000 0.000000 -0.000000 0.000000 -0.000000 -0.164336 -0.207169 0.094862 -0.081275 -0.029926 -0.043227 0.691456 0.125770 0.049711 0.620509 0.138611 -0.123440 0.422226 0.090935 -0.085929 -0.474969 -0.023752 0.243190 -0.956788 -0.217127 0.127211 1.152089 -0.644676 0.696695 -3.363700 -0.481900 0.099683 1.403740 2.012129 -1.068204 2.108345 0.405876 0.708240 0.038750 -0.194274 0.094146 -3.572463 0.029388 -4.622993 3.090891 -2.572027 -2.613570 1.230613 1.513207 -0.611675 0.585662 0.032393 0.063699 -0.029745 -0.004183 0.023390 -1.351645 -0.009960 -0.770206 0.539768 -0.085919 1.140241 0.699361 0.286376 -0.279995 -0.031163 0.234505 0.744068 -0.295842 -0.558554 -0.606707 0.004152 0.003963 0.007713 
0.000000 0.000000 0.000000 -0.000000 0.000000 -0.000000 -0.164336 -0.207169 0.094862 -0.081275 -0.029926 -0.043227 0.691456 0.125770 0.049711 0.620509 0.138611 -0.123440 0.422226 0.090935 -0.085929 -0.474969 -0.023752 0.243190 -0.956788 -0.217127 0.127211 1.152089 -0.644676 0.696695 -3.363700 -0.481900 0.099683 1.403740 2.012129 -1.068204 2.108345 0.405876 0.708240 0.038750 -0.194274 0.094146 -3.572463 0.029388 -4.622993 3.090891 -2.572027 -2.613570 1.230613 1.513207 -0.611675 0.585662 0.032393 0.063699 -0.029745 -0.004183 0.023390 -1.351645 -0.009960 -0.770206 0.539768 -0.085919 1.140241 0.699361 0.286376 -0.279995 -0.031163 0.234505 0.744068 -0.295842 -0.558554 -0.606707 0.004152 0.003963 0.007713 
